{
    "asset" : {
        "generator" : "Khronos glTF Blender I/O v1.1.45",
        "version" : "2.0"
    },
    "scene" : 0,
    "scenes" : [
        {
            "name" : "Scene",
            "nodes" : [
                0
            ]
        }
    ],
    "nodes" : [
        {
            "mesh" : 0,
            "name" : "StaticCube",
            "scale" : [
                0.5,
                1,
                0.5
            ]
        }
    ],
    "animations" : [
        {
            "channels" : [
                {
                    "sampler" : 0,
                    "target" : {
                        "node" : 0,
                        "path" : "translation"
                    }
                },
                {
                    "sampler" : 1,
                    "target" : {
                        "node" : 0,
                        "path" : "rotation"
                    }
                }
            ],
            "name" : "CubeAction.001",
            "samplers" : [
                {
                    "input" : 12,
                    "interpolation" : "LINEAR",
                    "output" : 13
                },
                {
                    "input" : 12,
                    "interpolation" : "LINEAR",
                    "output" : 14
                }
            ]
        }
    ],
    "materials" : [
        {
            "doubleSided" : true,
            "emissiveFactor" : [
                0,
                0,
                0
            ],
            "name" : "Cube body metal",
            "pbrMetallicRoughness" : {
                "metallicFactor" : 0.800000011920929,
                "roughnessFactor" : 0.30000001192092896
            }
        },
        {
            "doubleSided" : true,
            "emissiveFactor" : [
                1,
                0,
                0
            ],
            "name" : "Ruby",
            "pbrMetallicRoughness" : {
                "baseColorFactor" : [
                    1,
                    0.08563432842493057,
                    0.08563432842493057,
                    1
                ],
                "metallicFactor" : 0.5,
                "roughnessFactor" : 0
            }
        },
        {
            "doubleSided" : true,
            "emissiveFactor" : [
                0,
                0,
                0
            ],
            "name" : "Black rough metal",
            "pbrMetallicRoughness" : {
                "baseColorFactor" : [
                    0.013524689711630344,
                    0.013524689711630344,
                    0.013524689711630344,
                    1
                ],
                "metallicFactor" : 0.5,
                "roughnessFactor" : 0.800000011920929
            }
        }
    ],
    "meshes" : [
        {
            "name" : "Cube.006",
            "primitives" : [
                {
                    "attributes" : {
                        "POSITION" : 0,
                        "NORMAL" : 1,
                        "TEXCOORD_0" : 2
                    },
                    "indices" : 3,
                    "material" : 0
                },
                {
                    "attributes" : {
                        "POSITION" : 4,
                        "NORMAL" : 5,
                        "TEXCOORD_0" : 6
                    },
                    "indices" : 7,
                    "material" : 1
                },
                {
                    "attributes" : {
                        "POSITION" : 8,
                        "NORMAL" : 9,
                        "TEXCOORD_0" : 10
                    },
                    "indices" : 11,
                    "material" : 2
                }
            ]
        }
    ],
    "accessors" : [
        {
            "bufferView" : 0,
            "componentType" : 5126,
            "count" : 566,
            "max" : [
                1,
                1,
                1
            ],
            "min" : [
                -1,
                -1,
                -1
            ],
            "type" : "VEC3"
        },
        {
            "bufferView" : 1,
            "componentType" : 5126,
            "count" : 566,
            "type" : "VEC3"
        },
        {
            "bufferView" : 2,
            "componentType" : 5126,
            "count" : 566,
            "type" : "VEC2"
        },
        {
            "bufferView" : 3,
            "componentType" : 5123,
            "count" : 864,
            "type" : "SCALAR"
        },
        {
            "bufferView" : 4,
            "componentType" : 5126,
            "count" : 72,
            "max" : [
                0.9500000476837158,
                0.9750000238418579,
                0.9500000476837158
            ],
            "min" : [
                -0.9500000476837158,
                -0.9750000834465027,
                -0.9500001668930054
            ],
            "type" : "VEC3"
        },
        {
            "bufferView" : 5,
            "componentType" : 5126,
            "count" : 72,
            "type" : "VEC3"
        },
        {
            "bufferView" : 6,
            "componentType" : 5126,
            "count" : 72,
            "type" : "VEC2"
        },
        {
            "bufferView" : 7,
            "componentType" : 5123,
            "count" : 72,
            "type" : "SCALAR"
        },
        {
            "bufferView" : 8,
            "componentType" : 5126,
            "count" : 449,
            "max" : [
                0.9500000476837158,
                0.9750000238418579,
                0.9500000476837158
            ],
            "min" : [
                -0.9500000476837158,
                -0.9750000834465027,
                -0.9500000476837158
            ],
            "type" : "VEC3"
        },
        {
            "bufferView" : 9,
            "componentType" : 5126,
            "count" : 449,
            "type" : "VEC3"
        },
        {
            "bufferView" : 10,
            "componentType" : 5126,
            "count" : 449,
            "type" : "VEC2"
        },
        {
            "bufferView" : 11,
            "componentType" : 5123,
            "count" : 648,
            "type" : "SCALAR"
        },
        {
            "bufferView" : 12,
            "componentType" : 5126,
            "count" : 20,
            "max" : [
                0.8333333333333334
            ],
            "min" : [
                0.041666666666666664
            ],
            "type" : "SCALAR"
        },
        {
            "bufferView" : 13,
            "componentType" : 5126,
            "count" : 20,
            "type" : "VEC3"
        },
        {
            "bufferView" : 14,
            "componentType" : 5126,
            "count" : 20,
            "type" : "VEC4"
        }
    ],
    "bufferViews" : [
        {
            "buffer" : 0,
            "byteLength" : 6792,
            "byteOffset" : 0
        },
        {
            "buffer" : 0,
            "byteLength" : 6792,
            "byteOffset" : 6792
        },
        {
            "buffer" : 0,
            "byteLength" : 4528,
            "byteOffset" : 13584
        },
        {
            "buffer" : 0,
            "byteLength" : 1728,
            "byteOffset" : 18112
        },
        {
            "buffer" : 0,
            "byteLength" : 864,
            "byteOffset" : 19840
        },
        {
            "buffer" : 0,
            "byteLength" : 864,
            "byteOffset" : 20704
        },
        {
            "buffer" : 0,
            "byteLength" : 576,
            "byteOffset" : 21568
        },
        {
            "buffer" : 0,
            "byteLength" : 144,
            "byteOffset" : 22144
        },
        {
            "buffer" : 0,
            "byteLength" : 5388,
            "byteOffset" : 22288
        },
        {
            "buffer" : 0,
            "byteLength" : 5388,
            "byteOffset" : 27676
        },
        {
            "buffer" : 0,
            "byteLength" : 3592,
            "byteOffset" : 33064
        },
        {
            "buffer" : 0,
            "byteLength" : 1296,
            "byteOffset" : 36656
        },
        {
            "buffer" : 0,
            "byteLength" : 80,
            "byteOffset" : 37952
        },
        {
            "buffer" : 0,
            "byteLength" : 240,
            "byteOffset" : 38032
        },
        {
            "buffer" : 0,
            "byteLength" : 320,
            "byteOffset" : 38272
        }
    ],
    "buffers" : [
        {
            "byteLength" : 38592,
            "uri" : "glow_cube.bin"
        }
    ]
}
